<svg width="474" height="185" viewBox="0 0 474 185" fill="none"
  xmlns="http://www.w3.org/2000/svg">
  <rect width="474" height="184.247" fill="white"/>
  <path d="M153.291 67.8795V118.595H163.733V84.6427H163.875L184.971 118.595H196.123V67.8795H185.681V101.903H185.539L164.372 67.8795H153.291ZM213.824 100.269C213.824 98.8015 213.966 97.3572 214.251 95.9366C214.535 94.516 215.008 93.2611 215.671 92.172C216.382 91.0828 217.305 90.2068 218.441 89.5438C219.578 88.8335 220.999 88.4784 222.703 88.4784C224.408 88.4784 225.829 88.8335 226.965 89.5438C228.149 90.2068 229.072 91.0828 229.735 92.172C230.446 93.2611 230.943 94.516 231.227 95.9366C231.511 97.3572 231.653 98.8015 231.653 100.269C231.653 101.737 231.511 103.182 231.227 104.602C230.943 105.976 230.446 107.23 229.735 108.367C229.072 109.456 228.149 110.332 226.965 110.995C225.829 111.658 224.408 111.99 222.703 111.99C220.999 111.99 219.578 111.658 218.441 110.995C217.305 110.332 216.382 109.456 215.671 108.367C215.008 107.23 214.535 105.976 214.251 104.602C213.966 103.182 213.824 101.737 213.824 100.269ZM203.738 100.269C203.738 103.205 204.188 105.857 205.088 108.225C205.987 110.593 207.266 112.629 208.923 114.334C210.581 115.991 212.57 117.269 214.89 118.169C217.21 119.069 219.815 119.519 222.703 119.519C225.592 119.519 228.196 119.069 230.517 118.169C232.884 117.269 234.897 115.991 236.554 114.334C238.212 112.629 239.49 110.593 240.39 108.225C241.29 105.857 241.739 103.205 241.739 100.269C241.739 97.3335 241.29 94.6817 240.39 92.314C239.49 89.899 238.212 87.8628 236.554 86.2054C234.897 84.5007 232.884 83.1984 230.517 82.2987C228.196 81.3516 225.592 80.8781 222.703 80.8781C219.815 80.8781 217.21 81.3516 214.89 82.2987C212.57 83.1984 210.581 84.5007 208.923 86.2054C207.266 87.8628 205.987 89.899 205.088 92.314C204.188 94.6817 203.738 97.3335 203.738 100.269ZM261.083 81.8725V70.8628H250.997V81.8725H244.888V88.6204H250.997V110.285C250.997 112.132 251.305 113.623 251.92 114.76C252.536 115.896 253.364 116.772 254.406 117.388C255.495 118.003 256.727 118.406 258.1 118.595C259.52 118.832 261.012 118.951 262.575 118.951C263.569 118.951 264.587 118.927 265.629 118.88C266.671 118.832 267.618 118.737 268.47 118.595V110.782C267.997 110.877 267.5 110.948 266.979 110.995C266.458 111.042 265.913 111.066 265.345 111.066C263.64 111.066 262.504 110.782 261.935 110.214C261.367 109.646 261.083 108.509 261.083 106.804V88.6204H268.47V81.8725H261.083ZM273.269 67.8795V118.595H283.356V99.3461C283.356 95.6051 283.971 92.9296 285.202 91.3196C286.434 89.6622 288.423 88.8335 291.169 88.8335C293.584 88.8335 295.265 89.5912 296.212 91.1065C297.159 92.5745 297.633 94.8238 297.633 97.8544V118.595H307.719V96.0076C307.719 93.7347 307.506 91.6748 307.08 89.828C306.701 87.9338 306.014 86.3475 305.02 85.0689C304.026 83.743 302.652 82.7249 300.9 82.0146C299.196 81.2569 296.994 80.8781 294.294 80.8781C292.4 80.8781 290.459 81.3753 288.47 82.3697C286.481 83.3168 284.847 84.8558 283.569 86.9867H283.356V67.8795H273.269ZM325.745 76.1901V67.8795H315.659V76.1901H325.745ZM315.659 81.8725V118.595H325.745V81.8725H315.659ZM333.687 81.8725V118.595H343.773V99.3461C343.773 95.6051 344.389 92.9296 345.62 91.3196C346.851 89.6622 348.84 88.8335 351.587 88.8335C354.002 88.8335 355.683 89.5912 356.63 91.1065C357.577 92.5745 358.051 94.8238 358.051 97.8544V118.595H368.137V96.0076C368.137 93.7347 367.924 91.6748 367.498 89.828C367.119 87.9338 366.432 86.3475 365.438 85.0689C364.443 83.743 363.07 82.7249 361.318 82.0146C359.613 81.2569 357.411 80.8781 354.712 80.8781C352.581 80.8781 350.498 81.3753 348.461 82.3697C346.425 83.3168 344.768 84.8558 343.489 86.9867H343.276V81.8725H333.687ZM392.911 109.93C391.348 109.93 390.046 109.598 389.004 108.935C387.962 108.272 387.11 107.42 386.447 106.378C385.831 105.336 385.381 104.176 385.097 102.898C384.86 101.572 384.742 100.246 384.742 98.9199C384.742 97.5466 384.884 96.2444 385.168 95.0132C385.5 93.7347 385.997 92.6218 386.66 91.6748C387.37 90.6803 388.223 89.899 389.217 89.3307C390.259 88.7625 391.49 88.4784 392.911 88.4784C394.568 88.4784 395.941 88.7862 397.03 89.4018C398.119 90.0174 398.996 90.8461 399.658 91.8879C400.321 92.9296 400.795 94.1372 401.079 95.5104C401.363 96.8363 401.505 98.2569 401.505 99.7723C401.505 101.098 401.316 102.377 400.937 103.608C400.606 104.792 400.085 105.857 399.374 106.804C398.664 107.751 397.764 108.509 396.675 109.077C395.586 109.646 394.331 109.93 392.911 109.93ZM411.094 116.251V81.8725H401.505V86.7736H401.363C400.132 84.6427 398.593 83.1274 396.746 82.2277C394.947 81.328 392.84 80.8781 390.424 80.8781C387.867 80.8781 385.594 81.3753 383.606 82.3697C381.664 83.3642 380.03 84.7138 378.704 86.4185C377.379 88.0759 376.36 90.0174 375.65 92.243C374.987 94.4213 374.656 96.6943 374.656 99.062C374.656 101.572 374.94 103.963 375.508 106.236C376.124 108.462 377.071 110.427 378.349 112.132C379.628 113.789 381.262 115.115 383.25 116.109C385.239 117.056 387.607 117.53 390.353 117.53C392.579 117.53 394.686 117.08 396.675 116.18C398.711 115.233 400.274 113.789 401.363 111.847H401.505V116.678C401.553 119.282 400.913 121.437 399.587 123.141C398.309 124.846 396.249 125.698 393.408 125.698C391.608 125.698 390.022 125.32 388.649 124.562C387.275 123.852 386.352 122.549 385.879 120.655H375.863C376.005 122.739 376.574 124.515 377.568 125.983C378.61 127.498 379.888 128.729 381.404 129.676C382.966 130.623 384.671 131.31 386.518 131.736C388.412 132.21 390.259 132.446 392.058 132.446C396.273 132.446 399.635 131.878 402.145 130.742C404.654 129.605 406.572 128.208 407.898 126.551C409.224 124.941 410.076 123.189 410.455 121.295C410.881 119.4 411.094 117.719 411.094 116.251Z" fill="black"/>
  <rect width="133.053" height="133.053" transform="translate(15.3322 25.727)" fill="white"/>
  <rect width="9.875" height="44.6776" transform="matrix(-0.707107 0.707107 0.707107 0.707107 69.6447 73.0231)" fill="black"/>
  <rect x="94.3322" y="73.0231" width="9.875" height="44.6776" transform="rotate(45 94.3322 73.0231)" fill="black"/>
  <rect x="107.326" y="57.4309" width="9.35526" height="9.35526" fill="black"/>
  <rect x="107.326" y="117.72" width="9.35526" height="9.35526" fill="black"/>
  <rect x="47.0362" y="57.4309" width="9.35526" height="9.35526" fill="black"/>
  <rect x="47.0362" y="117.72" width="9.35526" height="9.35526" fill="black"/>
</svg>
