<svg xmlns="http://www.w3.org/2000/svg" width="64" height="64">
  <rect width="64" height="64" fill="#e2e8f0"/>
  <path d="M0 0h32v32H0zM32 32h32v32H32z" fill="#cbd5e1"/>
  <defs>
    <filter id="f0" filterUnits="userSpaceOnUse" primitiveUnits="userSpaceOnUse" x="0" y="0" width="16" height="16" color-interpolation-filters="sRGB"><feConvolveMatrix kernelMatrix="0 0 0 0 1 0 0 0 0" divisor="1"/></filter>
    <filter id="f1" filterUnits="userSpaceOnUse" primitiveUnits="userSpaceOnUse" x="16" y="0" width="16" height="16" color-interpolation-filters="sRGB"><feConvolveMatrix order="1" kernelMatrix="1" divisor="1"/></filter>
    <filter id="f2" filterUnits="userSpaceOnUse" primitiveUnits="userSpaceOnUse" x="32" y="0" width="16" height="16" color-interpolation-filters="sRGB"><feConvolveMatrix order="2.9" kernelMatrix="1 0 0 0" divisor="1" targetX="0" targetY="0"/></filter>
    <filter id="f3" filterUnits="userSpaceOnUse" primitiveUnits="userSpaceOnUse" x="48" y="0" width="16" height="16" color-interpolation-filters="sRGB"><feConvolveMatrix order="2,3" kernelMatrix="1 0 0 0 0 0" divisor="1" targetX="0" targetY="0"/></filter>
    <filter id="f4" filterUnits="userSpaceOnUse" primitiveUnits="userSpaceOnUse" x="0" y="16" width="16" height="16" color-interpolation-filters="sRGB"><feConvolveMatrix order="bogus" kernelMatrix="0 0 0 0 1 0 0 0 0" divisor="1"/></filter>
    <filter id="f5" filterUnits="userSpaceOnUse" primitiveUnits="userSpaceOnUse" x="16" y="16" width="16" height="16" color-interpolation-filters="sRGB"><feConvolveMatrix order="0" kernelMatrix="1"/></filter>
    <filter id="f6" filterUnits="userSpaceOnUse" primitiveUnits="userSpaceOnUse" x="32" y="16" width="16" height="16" color-interpolation-filters="sRGB"><feConvolveMatrix order=",2" kernelMatrix="1 0 0 0"/></filter>
    <filter id="f7" filterUnits="userSpaceOnUse" primitiveUnits="userSpaceOnUse" x="48" y="16" width="16" height="16" color-interpolation-filters="sRGB"><feConvolveMatrix order="2 3 4" kernelMatrix="1 0 0 0 0 0"/></filter>
    <filter id="f8" filterUnits="userSpaceOnUse" primitiveUnits="userSpaceOnUse" x="0" y="32" width="16" height="16" color-interpolation-filters="sRGB"><feConvolveMatrix order="3" kernelMatrix="0,0,0,0,1,0,0,0,0" divisor="1"/></filter>
    <filter id="f9" filterUnits="userSpaceOnUse" primitiveUnits="userSpaceOnUse" x="16" y="32" width="16" height="16" color-interpolation-filters="sRGB"><feConvolveMatrix order="3" kernelMatrix="0-1 0-1 5-1 0-1 0" divisor="1"/></filter>
    <filter id="f10" filterUnits="userSpaceOnUse" primitiveUnits="userSpaceOnUse" x="32" y="32" width="16" height="16" color-interpolation-filters="sRGB"><feConvolveMatrix order="3" kernelMatrix="0 0 0 0 1 0 0 0 0," divisor="1"/></filter>
    <filter id="f11" filterUnits="userSpaceOnUse" primitiveUnits="userSpaceOnUse" x="48" y="32" width="16" height="16" color-interpolation-filters="sRGB"><feConvolveMatrix order="3" kernelMatrix="0 0 0 0 1 0 0 0"/></filter>
    <filter id="f12" filterUnits="userSpaceOnUse" primitiveUnits="userSpaceOnUse" x="0" y="48" width="16" height="16" color-interpolation-filters="sRGB"><feConvolveMatrix order="3" kernelMatrix="0 0 0 0 1px 0 0 0 0"/></filter>
    <filter id="f13" filterUnits="userSpaceOnUse" primitiveUnits="userSpaceOnUse" x="16" y="48" width="16" height="16" color-interpolation-filters="sRGB"><feConvolveMatrix order="3" kernelMatrix="0 0 0 0 calc(1) 0 0 0 0"/></filter>
    <filter id="f14" filterUnits="userSpaceOnUse" primitiveUnits="userSpaceOnUse" x="32" y="48" width="16" height="16" color-interpolation-filters="sRGB"><feConvolveMatrix order="3" kernelMatrix="0 0 0 0 var(--k) 0 0 0 0"/></filter>
    <filter id="f15" filterUnits="userSpaceOnUse" primitiveUnits="userSpaceOnUse" x="48" y="48" width="16" height="16" color-interpolation-filters="sRGB"><feConvolveMatrix order="3" kernelMatrix="initial"/></filter>
  </defs>
  <path d="M3 4h9v4H8v5H3z" fill="#d946ef" filter="url(#f0)"/><path d="M19 4h9v4h-4v5h-5z" fill="#059669" filter="url(#f1)"/><path d="M35 4h9v4h-4v5h-5z" fill="#2563eb" filter="url(#f2)"/><path d="M51 4h9v4h-4v5h-5z" fill="#ea580c" filter="url(#f3)"/>
  <path d="M3 20h9v4H8v5H3z" fill="#d946ef" filter="url(#f4)"/><path d="M19 20h9v4h-4v5h-5z" fill="#059669" filter="url(#f5)"/><path d="M35 20h9v4h-4v5h-5z" fill="#2563eb" filter="url(#f6)"/><path d="M51 20h9v4h-4v5h-5z" fill="#ea580c" filter="url(#f7)"/>
  <path d="M3 36h9v4H8v5H3z" fill="#d946ef" filter="url(#f8)"/><path d="M19 36h9v4h-4v5h-5z" fill="#059669" filter="url(#f9)"/><path d="M35 36h9v4h-4v5h-5z" fill="#2563eb" filter="url(#f10)"/><path d="M51 36h9v4h-4v5h-5z" fill="#ea580c" filter="url(#f11)"/>
  <path d="M3 52h9v4H8v5H3z" fill="#d946ef" filter="url(#f12)"/><path d="M19 52h9v4h-4v5h-5z" fill="#059669" filter="url(#f13)"/><path d="M35 52h9v4h-4v5h-5z" fill="#2563eb" filter="url(#f14)"/><path d="M51 52h9v4h-4v5h-5z" fill="#ea580c" filter="url(#f15)"/>
</svg>
